<svg width="132" height="132" xmlns="http://www.w3.org/2000/svg" xmlns:xlink="http://www.w3.org/1999/xlink" xml:space="preserve" overflow="hidden"><g><g><g><g><g><path d="M97.797 61.2862C94.2103 63.5406 91.3378 66.7676 89.5139 70.5913 88.9381 71.8098 90.4419 72.6954 91.5322 71.7989 94.0137 69.7462 96.9066 68.2496 100.016 67.4104 102.472 66.7527 103.811 64.119 102.669 62.1923L102.614 62.1008C101.531 60.5496 99.3964 60.1695 97.8451 61.2519 97.8289 61.2632 97.8129 61.2746 97.797 61.2862Z" fill="#000000" fill-rule="nonzero" fill-opacity="1"/><path d="M39.2318 66.3488C41.61 66.8833 43.819 67.9981 45.6617 69.5938 46.0885 69.9653 46.7359 69.9206 47.1075 69.4937 47.3512 69.2139 47.4245 68.8241 47.2992 68.4748 46.1274 65.4342 44.0201 62.8444 41.2814 61.0788 40.0021 60.2732 38.3119 60.6572 37.5064 61.9367 37.4907 61.9615 37.4754 61.9867 37.4605 62.0121L37.4141 62.0926C36.6004 63.4413 37.0341 65.1942 38.3827 66.0079 38.6455 66.1665 38.9322 66.2816 39.2318 66.3488Z" fill="#000000" fill-rule="nonzero" fill-opacity="1"/><path d="M111.815 85.3847 111.795 85.2946C111.455 83.8216 109.985 82.9028 108.512 83.2427 108.483 83.2494 108.454 83.2565 108.426 83.2642 105.285 84.1348 102.502 85.9795 100.477 88.5328 100.133 88.9831 100.219 89.6271 100.669 89.9712 100.969 90.2005 101.371 90.2466 101.715 90.0912 103.949 89.1138 106.39 88.7056 108.82 88.9026 110.39 89.0265 111.764 87.8539 111.888 86.2837 111.911 85.9821 111.887 85.6786 111.815 85.3847Z" fill="#000000" fill-rule="nonzero" fill-opacity="1"/><path d="M23.7315 89.7186C26.9034 89.162 30.158 89.2923 33.2754 90.1007 34.6399 90.45 35.6293 89.009 34.5922 88.1521 31.3207 85.46 27.3517 83.7531 23.1474 83.23 21.2895 82.8744 19.4951 84.0923 19.1395 85.9503 19.1358 85.97 19.1321 85.9899 19.1287 86.0097L19.1178 86.1148C18.8995 88.3445 21.2302 90.1621 23.7315 89.7186Z" fill="#000000" fill-rule="nonzero" fill-opacity="1"/><path d="M70.4862 74.4012C71.2111 74.3349 71.7813 73.7531 71.833 73.027 72.1605 68.2742 73.97 50.8826 83.316 36.4398 85.7249 32.643 84.9175 27.6451 81.4356 24.7999L81.4356 24.7999C77.6483 21.648 72.023 22.1632 68.8711 25.9506 67.9 27.1174 67.2427 28.5127 66.9615 30.0045 63.9253 47.1136 67.7802 67.8662 68.8828 73.2181 69.0367 73.964 69.728 74.4741 70.4862 74.4012Z" fill="#000000" fill-rule="nonzero" fill-opacity="1"/><path d="M94.8126 96.764C96.723 95.8934 97.8515 94.8781 97.8515 93.7892 97.8515 91.7423 93.9529 89.9465 88.0798 88.9149 90.2718 87.7499 92.6088 86.8812 95.0296 86.3317 97.9528 85.6665 99.7834 82.7576 99.1181 79.8343 98.9906 79.2731 98.7744 78.7358 98.4779 78.2425L98.3878 78.091C96.9336 75.609 93.7428 74.7758 91.2607 76.2299 91.2124 76.2582 91.1647 76.2873 91.1173 76.3171 86.6209 79.2109 83.0103 83.2898 80.6837 88.1043 79.6548 88.0497 78.5945 88.0197 77.5179 88.0074 85.6795 65.8302 96.4242 52.6729 103.209 47.1477 106.477 44.5681 107.034 39.8281 104.455 36.5605 101.875 33.2928 97.1351 32.7351 93.8675 35.3146 93.4826 35.6185 93.1282 35.9592 92.8094 36.332 81.0139 49.5944 75.5597 71.4018 73.0366 88.0784 71.3145 88.1575 69.6593 88.2885 68.105 88.4741 68.105 88.4619 68.105 88.4496 68.105 88.4373 64.4274 67.4623 56.6984 38.8415 40.7778 22.1185 37.2679 18.289 31.3179 18.0298 27.4883 21.5398 23.6586 25.0498 23.3995 30.9998 26.9096 34.8295 27.3207 35.2782 27.7746 35.6858 28.2646 36.0468 37.3118 42.9161 52.0575 59.8861 63.3685 89.256 62.2932 89.4894 61.3039 89.75 60.4142 90.0352 57.5022 84.0668 53.0089 79.0114 47.4234 75.4192 44.3873 73.5042 40.3737 74.413 38.4586 77.4491 38.4196 77.5111 38.3816 77.5736 38.3448 77.6366L38.2329 77.8249C36.3042 81.0305 37.3391 85.1926 40.5446 87.1214 41.1618 87.4927 41.8343 87.7633 42.5368 87.9228 46.4197 88.7997 50.1246 90.3327 53.4917 92.456 51.8364 92.3195 50.0884 92.2486 48.2762 92.2486 38.1278 92.2486 29.9008 94.4919 29.9008 97.2607 29.9008 98.9282 32.9028 100.399 37.5001 101.313 37.1974 101.767 37.0304 102.297 37.0184 102.842 37.013 107.843 51.876 111.896 70.2092 111.896 88.5424 111.896 103.405 107.843 103.405 102.842 103.405 100.503 100.152 98.3714 94.8126 96.764Z" fill="#000000" fill-rule="nonzero" fill-opacity="1"/><path d="M25.6433 102.271C22.925 102.271 20.7212 102.872 20.7212 103.614 20.7212 104.357 22.925 104.957 25.6433 104.957 28.3615 104.957 30.5653 104.355 30.5653 103.614 30.5653 102.873 28.3615 102.271 25.6433 102.271Z" fill="#000000" fill-rule="nonzero" fill-opacity="1"/></g></g></g></g></g></svg>